<?xml version="1.0" encoding="UTF-8" standalone="no"?><!DOCTYPE svg PUBLIC "-//W3C//DTD SVG 1.1//EN" "http://www.w3.org/Graphics/SVG/1.1/DTD/svg11.dtd"><svg width="100%" height="100%" viewBox="0 0 360 360" version="1.1" xmlns="http://www.w3.org/2000/svg" xmlns:xlink="http://www.w3.org/1999/xlink" xml:space="preserve" xmlns:serif="http://www.serif.com/" style="fill-rule:evenodd;clip-rule:evenodd;stroke-linecap:round;stroke-linejoin:round;stroke-miterlimit:1.5;"><g id="LOGO-STAMP" serif:id="LOGO STAMP"><g><g id="text"><g id="_-cutie-club-キューティー-クラブ-" serif:id="(cutie club キューティー クラブ)" transform="matrix(-0.363677,-0.697794,0.705752,-0.367825,177.122,549.823)"><g transform="matrix(0.483129,0.888553,-0.878533,0.477681,371.637,-411.583)"><g transform="matrix(99.4644,0,0,99.4644,534.14,114.984)"><path d="M0.547,-0.153c0,0.017 -0.005,0.035 -0.015,0.053c-0.01,0.019 -0.025,0.037 -0.045,0.054c-0.021,0.017 -0.046,0.031 -0.077,0.042c-0.031,0.01 -0.066,0.015 -0.105,0.015c-0.082,0 -0.146,-0.024 -0.193,-0.072c-0.046,-0.048 -0.069,-0.112 -0.069,-0.193c0,-0.055 0.011,-0.103 0.032,-0.145c0.021,-0.042 0.051,-0.074 0.092,-0.097c0.04,-0.023 0.087,-0.035 0.143,-0.035c0.035,0 0.066,0.005 0.095,0.015c0.029,0.01 0.053,0.023 0.073,0.039c0.02,0.016 0.036,0.033 0.046,0.051c0.011,0.019 0.016,0.035 0.016,0.051c0,0.016 -0.006,0.029 -0.018,0.041c-0.012,0.011 -0.026,0.016 -0.043,0.016c-0.011,0 -0.02,-0.003 -0.028,-0.008c-0.007,-0.006 -0.015,-0.015 -0.024,-0.028c-0.017,-0.025 -0.034,-0.043 -0.051,-0.056c-0.018,-0.012 -0.041,-0.018 -0.068,-0.018c-0.039,0 -0.071,0.015 -0.095,0.046c-0.024,0.031 -0.036,0.073 -0.036,0.126c0,0.025 0.003,0.048 0.009,0.069c0.006,0.021 0.015,0.039 0.027,0.054c0.012,0.015 0.026,0.026 0.042,0.034c0.017,0.007 0.035,0.011 0.055,0.011c0.027,0 0.05,-0.006 0.069,-0.018c0.019,-0.013 0.036,-0.032 0.05,-0.057c0.008,-0.015 0.017,-0.027 0.027,-0.035c0.009,-0.009 0.021,-0.013 0.034,-0.013c0.017,0 0.03,0.006 0.041,0.019c0.011,0.012 0.016,0.025 0.016,0.039Z" style="fill:none;fill-rule:nonzero;"/></g></g><g transform="matrix(0.107479,1.00568,-0.994338,0.106267,663.404,-415.07)"><g transform="matrix(99.4644,0,0,99.4644,562.847,168.185)"><path d="M0.415,-0.063l0,-0.017c-0.016,0.02 -0.033,0.037 -0.05,0.051c-0.018,0.013 -0.037,0.024 -0.058,0.03c-0.021,0.007 -0.044,0.01 -0.071,0.01c-0.032,0 -0.061,-0.006 -0.087,-0.02c-0.025,-0.013 -0.045,-0.032 -0.059,-0.055c-0.017,-0.028 -0.025,-0.069 -0.025,-0.122l0,-0.264c0,-0.027 0.006,-0.047 0.018,-0.06c0.012,-0.013 0.028,-0.02 0.048,-0.02c0.02,0 0.036,0.007 0.049,0.02c0.012,0.014 0.018,0.033 0.018,0.06l0,0.213c0,0.031 0.003,0.057 0.008,0.078c0.005,0.021 0.015,0.037 0.028,0.049c0.014,0.012 0.032,0.018 0.055,0.018c0.023,0 0.044,-0.006 0.064,-0.02c0.019,-0.013 0.034,-0.031 0.043,-0.052c0.007,-0.019 0.011,-0.06 0.011,-0.124l0,-0.162c0,-0.027 0.006,-0.046 0.019,-0.06c0.012,-0.013 0.028,-0.02 0.048,-0.02c0.02,0 0.036,0.007 0.048,0.02c0.012,0.013 0.018,0.033 0.018,0.06l0,0.386c0,0.025 -0.006,0.044 -0.017,0.057c-0.012,0.013 -0.027,0.019 -0.045,0.019c-0.018,0 -0.033,-0.006 -0.045,-0.02c-0.012,-0.013 -0.018,-0.031 -0.018,-0.055Z" style="fill:none;fill-rule:nonzero;"/></g></g><g transform="matrix(-0.215349,0.988213,-0.97707,-0.21292,907.299,-284.458)"><g transform="matrix(99.4644,0,0,99.4644,567.49,228.924)"><path d="M0.076,-0.518l0.015,0l0,-0.08c0,-0.022 0,-0.038 0.002,-0.051c0.001,-0.012 0.004,-0.022 0.009,-0.031c0.005,-0.009 0.013,-0.017 0.023,-0.022c0.009,-0.006 0.02,-0.009 0.032,-0.009c0.017,0 0.032,0.006 0.046,0.019c0.009,0.009 0.015,0.019 0.017,0.031c0.003,0.012 0.004,0.03 0.004,0.052l0,0.091l0.049,0c0.019,0 0.033,0.004 0.043,0.013c0.01,0.009 0.015,0.021 0.015,0.035c0,0.018 -0.007,0.03 -0.021,0.037c-0.014,0.008 -0.035,0.011 -0.061,0.011l-0.025,0l0,0.245c0,0.021 0.001,0.037 0.002,0.048c0.002,0.012 0.006,0.021 0.012,0.028c0.006,0.007 0.017,0.01 0.031,0.01c0.008,0 0.018,-0.001 0.032,-0.004c0.013,-0.003 0.024,-0.004 0.031,-0.004c0.011,0 0.02,0.004 0.029,0.013c0.009,0.008 0.013,0.019 0.013,0.032c0,0.021 -0.012,0.038 -0.035,0.049c-0.024,0.012 -0.057,0.017 -0.101,0.017c-0.042,0 -0.073,-0.007 -0.095,-0.021c-0.021,-0.014 -0.035,-0.033 -0.042,-0.058c-0.007,-0.025 -0.01,-0.058 -0.01,-0.099l0,-0.256l-0.018,0c-0.019,0 -0.034,-0.004 -0.044,-0.014c-0.01,-0.009 -0.015,-0.02 -0.015,-0.034c0,-0.014 0.005,-0.026 0.016,-0.035c0.011,-0.009 0.026,-0.013 0.046,-0.013Z" style="fill:none;fill-rule:nonzero;"/></g></g><g transform="matrix(-0.40087,0.928571,-0.9181,-0.39635,1020.35,-153.94)"><g transform="matrix(99.4644,0,0,99.4644,559.633,263.675)"><path d="M0.202,-0.454l0,0.385c0,0.027 -0.006,0.047 -0.019,0.061c-0.013,0.013 -0.029,0.02 -0.048,0.02c-0.02,0 -0.036,-0.007 -0.048,-0.021c-0.012,-0.014 -0.018,-0.034 -0.018,-0.06l0,-0.381c0,-0.027 0.006,-0.046 0.018,-0.06c0.012,-0.013 0.028,-0.02 0.048,-0.02c0.019,0 0.035,0.007 0.048,0.02c0.013,0.014 0.019,0.032 0.019,0.056Zm-0.066,-0.138c-0.018,0 -0.034,-0.005 -0.047,-0.017c-0.014,-0.011 -0.02,-0.027 -0.02,-0.048c0,-0.019 0.007,-0.035 0.02,-0.047c0.014,-0.012 0.029,-0.018 0.047,-0.018c0.017,0 0.033,0.005 0.046,0.016c0.013,0.012 0.02,0.028 0.02,0.049c0,0.02 -0.006,0.036 -0.019,0.048c-0.013,0.011 -0.029,0.017 -0.047,0.017Z" style="fill:none;fill-rule:nonzero;"/></g></g><g transform="matrix(-0.63997,0.783185,-0.774353,-0.632753,1122.66,38.5106)"><g transform="matrix(99.4644,0,0,99.4644,550.53,290.069)"><path d="M0.441,-0.226l-0.261,0c0.001,0.03 0.007,0.057 0.018,0.08c0.012,0.023 0.028,0.041 0.048,0.052c0.02,0.012 0.041,0.018 0.065,0.018c0.016,0 0.031,-0.002 0.044,-0.006c0.013,-0.004 0.026,-0.009 0.038,-0.017c0.012,-0.008 0.024,-0.017 0.034,-0.026c0.011,-0.009 0.024,-0.021 0.041,-0.037c0.007,-0.006 0.016,-0.009 0.029,-0.009c0.014,0 0.025,0.004 0.033,0.011c0.009,0.008 0.013,0.018 0.013,0.032c0,0.012 -0.005,0.026 -0.014,0.042c-0.01,0.016 -0.024,0.032 -0.043,0.047c-0.019,0.015 -0.043,0.027 -0.072,0.037c-0.029,0.009 -0.062,0.014 -0.099,0.014c-0.086,0 -0.152,-0.024 -0.2,-0.073c-0.047,-0.049 -0.071,-0.115 -0.071,-0.199c0,-0.039 0.006,-0.076 0.018,-0.109c0.011,-0.034 0.028,-0.063 0.051,-0.087c0.022,-0.024 0.05,-0.043 0.083,-0.055c0.033,-0.013 0.069,-0.02 0.109,-0.02c0.052,0 0.097,0.011 0.134,0.033c0.037,0.022 0.065,0.051 0.084,0.085c0.019,0.035 0.028,0.071 0.028,0.107c0,0.033 -0.01,0.055 -0.029,0.065c-0.019,0.01 -0.046,0.015 -0.081,0.015Zm-0.261,-0.076l0.242,0c-0.003,-0.045 -0.016,-0.079 -0.037,-0.102c-0.021,-0.023 -0.049,-0.034 -0.084,-0.034c-0.033,0 -0.061,0.011 -0.082,0.034c-0.021,0.023 -0.034,0.057 -0.039,0.102Z" style="fill:none;fill-rule:nonzero;"/></g></g><g transform="matrix(-0.949847,0.347463,-0.343545,-0.939136,1076.08,505.112)"><g transform="matrix(99.4644,0,0,99.4644,491.044,351.481)"><path d="M0.547,-0.153c0,0.017 -0.005,0.035 -0.015,0.053c-0.01,0.019 -0.025,0.037 -0.045,0.054c-0.021,0.017 -0.046,0.031 -0.077,0.042c-0.031,0.01 -0.066,0.015 -0.105,0.015c-0.082,0 -0.146,-0.024 -0.193,-0.072c-0.046,-0.048 -0.069,-0.112 -0.069,-0.193c0,-0.055 0.011,-0.103 0.032,-0.145c0.021,-0.042 0.051,-0.074 0.092,-0.097c0.04,-0.023 0.087,-0.035 0.143,-0.035c0.035,0 0.066,0.005 0.095,0.015c0.029,0.01 0.053,0.023 0.073,0.039c0.02,0.016 0.036,0.033 0.046,0.051c0.011,0.019 0.016,0.035 0.016,0.051c0,0.016 -0.006,0.029 -0.018,0.041c-0.012,0.011 -0.026,0.016 -0.043,0.016c-0.011,0 -0.02,-0.003 -0.028,-0.008c-0.007,-0.006 -0.015,-0.015 -0.024,-0.028c-0.017,-0.025 -0.034,-0.043 -0.051,-0.056c-0.018,-0.012 -0.041,-0.018 -0.068,-0.018c-0.039,0 -0.071,0.015 -0.095,0.046c-0.024,0.031 -0.036,0.073 -0.036,0.126c0,0.025 0.003,0.048 0.009,0.069c0.006,0.021 0.015,0.039 0.027,0.054c0.012,0.015 0.026,0.026 0.042,0.034c0.017,0.007 0.035,0.011 0.055,0.011c0.027,0 0.05,-0.006 0.069,-0.018c0.019,-0.013 0.036,-0.032 0.05,-0.057c0.008,-0.015 0.017,-0.027 0.027,-0.035c0.009,-0.009 0.021,-0.013 0.034,-0.013c0.017,0 0.03,0.006 0.041,0.019c0.011,0.012 0.016,0.025 0.016,0.039Z" style="fill:none;fill-rule:nonzero;"/></g></g><g transform="matrix(-1.00724,0.0917461,-0.0907115,-0.995877,909.577,690.897)"><g transform="matrix(99.4644,0,0,99.4644,436.739,369.34)"><path d="M0.069,-0.069l0,-0.578c0,-0.027 0.006,-0.047 0.018,-0.061c0.012,-0.013 0.028,-0.02 0.048,-0.02c0.02,0 0.036,0.007 0.049,0.02c0.012,0.014 0.018,0.034 0.018,0.061l0,0.578c0,0.027 -0.006,0.047 -0.019,0.061c-0.012,0.013 -0.028,0.02 -0.048,0.02c-0.02,0 -0.036,-0.007 -0.048,-0.021c-0.012,-0.014 -0.018,-0.034 -0.018,-0.06Z" style="fill:none;fill-rule:nonzero;"/></g></g><g transform="matrix(-0.99484,-0.182301,0.180246,-0.983622,750.108,810.426)"><g transform="matrix(99.4644,0,0,99.4644,409.258,374.029)"><path d="M0.415,-0.063l0,-0.017c-0.016,0.02 -0.033,0.037 -0.05,0.051c-0.018,0.013 -0.037,0.024 -0.058,0.03c-0.021,0.007 -0.044,0.01 -0.071,0.01c-0.032,0 -0.061,-0.006 -0.087,-0.02c-0.025,-0.013 -0.045,-0.032 -0.059,-0.055c-0.017,-0.028 -0.025,-0.069 -0.025,-0.122l0,-0.264c0,-0.027 0.006,-0.047 0.018,-0.06c0.012,-0.013 0.028,-0.02 0.048,-0.02c0.02,0 0.036,0.007 0.049,0.02c0.012,0.014 0.018,0.033 0.018,0.06l0,0.213c0,0.031 0.003,0.057 0.008,0.078c0.005,0.021 0.015,0.037 0.028,0.049c0.014,0.012 0.032,0.018 0.055,0.018c0.023,0 0.044,-0.006 0.064,-0.02c0.019,-0.013 0.034,-0.031 0.043,-0.052c0.007,-0.019 0.011,-0.06 0.011,-0.124l0,-0.162c0,-0.027 0.006,-0.046 0.019,-0.06c0.012,-0.013 0.028,-0.02 0.048,-0.02c0.02,0 0.036,0.007 0.048,0.02c0.012,0.013 0.018,0.033 0.018,0.06l0,0.386c0,0.025 -0.006,0.044 -0.017,0.057c-0.012,0.013 -0.027,0.019 -0.045,0.019c-0.018,0 -0.033,-0.006 -0.045,-0.02c-0.012,-0.013 -0.018,-0.031 -0.018,-0.055Z" style="fill:none;fill-rule:nonzero;"/></g></g><g transform="matrix(-0.845922,-0.554398,0.548146,-0.836383,447.717,854.739)"><g transform="matrix(99.4644,0,0,99.4644,348.51,363.065)"><path d="M0.192,-0.652l0,0.204c0.025,-0.026 0.051,-0.046 0.077,-0.06c0.026,-0.014 0.058,-0.021 0.096,-0.021c0.045,0 0.083,0.011 0.117,0.032c0.033,0.021 0.059,0.051 0.077,0.091c0.019,0.04 0.028,0.087 0.028,0.142c0,0.04 -0.005,0.077 -0.015,0.111c-0.011,0.034 -0.026,0.063 -0.045,0.088c-0.02,0.024 -0.043,0.043 -0.071,0.057c-0.028,0.013 -0.059,0.02 -0.092,0.02c-0.021,0 -0.04,-0.002 -0.058,-0.007c-0.018,-0.005 -0.034,-0.011 -0.046,-0.019c-0.013,-0.008 -0.024,-0.017 -0.033,-0.025c-0.009,-0.009 -0.02,-0.021 -0.035,-0.038l0,0.013c0,0.025 -0.006,0.044 -0.018,0.057c-0.012,0.013 -0.028,0.019 -0.046,0.019c-0.019,0 -0.034,-0.006 -0.045,-0.019c-0.011,-0.013 -0.017,-0.032 -0.017,-0.057l0,-0.582c0,-0.027 0.005,-0.047 0.016,-0.061c0.011,-0.014 0.026,-0.021 0.046,-0.021c0.02,0 0.036,0.007 0.047,0.02c0.011,0.013 0.017,0.032 0.017,0.056Zm0.006,0.396c0,0.053 0.012,0.094 0.037,0.122c0.024,0.029 0.056,0.043 0.095,0.043c0.034,0 0.062,-0.014 0.087,-0.044c0.024,-0.029 0.036,-0.07 0.036,-0.125c0,-0.035 -0.005,-0.065 -0.015,-0.091c-0.01,-0.025 -0.024,-0.045 -0.043,-0.058c-0.019,-0.014 -0.04,-0.021 -0.065,-0.021c-0.025,0 -0.048,0.007 -0.068,0.021c-0.02,0.013 -0.035,0.033 -0.047,0.06c-0.011,0.026 -0.017,0.057 -0.017,0.093Z" style="fill:none;fill-rule:nonzero;"/></g></g><g transform="matrix(-0.476339,-0.892212,0.88215,-0.470968,131.683,707.95)"><g transform="matrix(46.491,0,0,46.491,279.635,308.353)"><path d="M0.056,-0.439c0.034,-0.009 0.085,-0.019 0.156,-0.028c-0.04,0.158 -0.124,0.357 -0.188,0.442l0.165,0.087c0.006,-0.014 0.008,-0.019 0.016,-0.036c0.058,-0.125 0.074,-0.165 0.106,-0.258c0.032,-0.092 0.053,-0.165 0.071,-0.249c0.021,-0.002 0.031,-0.002 0.04,-0.002c0.035,0 0.049,0.004 0.06,0.017c0.013,0.014 0.019,0.038 0.019,0.081c0,0.076 -0.012,0.178 -0.027,0.222c-0.011,0.032 -0.024,0.045 -0.045,0.045c-0.029,0 -0.08,-0.014 -0.137,-0.036c0.011,0.048 0.015,0.075 0.015,0.119c0,0.018 0,0.03 -0.003,0.058c0.068,0.019 0.113,0.027 0.159,0.027c0.032,0 0.058,-0.005 0.078,-0.014c0.025,-0.013 0.05,-0.035 0.064,-0.06c0.04,-0.069 0.063,-0.199 0.063,-0.355c0,-0.113 -0.02,-0.174 -0.071,-0.215c-0.034,-0.027 -0.08,-0.04 -0.142,-0.04c-0.014,0 -0.026,0.001 -0.043,0.002c0.004,-0.023 0.011,-0.061 0.019,-0.107c0.01,-0.059 0.01,-0.059 0.016,-0.079l-0.181,-0.017l0,0.017c0,0.034 -0.007,0.093 -0.023,0.198c-0.065,0.008 -0.161,0.016 -0.193,0.016l-0.009,0l0.015,0.165Zm0.58,-0.204c0.092,0.109 0.154,0.254 0.187,0.437l0.164,-0.078c-0.04,-0.168 -0.104,-0.302 -0.204,-0.427l-0.147,0.068Z" style="fill-rule:nonzero;"/></g></g><g transform="matrix(-0.151451,-1,0.988725,-0.149743,26.3191,556.689)"><g transform="matrix(46.491,0,0,46.491,255.52,260.594)"><path d="M0.102,-0.088c0.016,-0.022 0.028,-0.036 0.065,-0.077c0.026,-0.027 0.026,-0.027 0.037,-0.04c-0.002,0.04 -0.002,0.04 -0.002,0.053c0,0.173 0,0.179 -0.006,0.221l0.181,0c-0.005,-0.05 -0.009,-0.202 -0.009,-0.328c0,-0.02 0,-0.04 0.001,-0.086c0.041,-0.038 0.066,-0.057 0.116,-0.084c0.06,-0.034 0.106,-0.049 0.15,-0.049c0.092,0 0.148,0.056 0.148,0.149c0,0.114 -0.075,0.186 -0.194,0.186c-0.051,0 -0.091,-0.008 -0.164,-0.031c0.022,0.068 0.027,0.098 0.029,0.176c0.05,0.013 0.092,0.018 0.14,0.018c0.219,0 0.362,-0.136 0.362,-0.346c0,-0.185 -0.123,-0.313 -0.302,-0.313c-0.056,0 -0.119,0.015 -0.178,0.043c-0.034,0.016 -0.06,0.032 -0.108,0.066c0.001,-0.007 0.001,-0.007 0.001,-0.016c0,-0.004 0,-0.007 0.001,-0.014c0.024,-0.029 0.042,-0.047 0.063,-0.065l-0.057,-0.051c0.002,-0.06 0.007,-0.109 0.015,-0.149l-0.178,-0.001c0.002,0.024 0.003,0.033 0.003,0.047l0,0.007c0,0.011 0,0.022 -0.001,0.032c0,0.048 0,0.055 -0.002,0.078c-0.025,0.002 -0.108,0.005 -0.119,0.005c-0.007,0 -0.007,0 -0.038,-0.002l0.008,0.156c0.028,-0.005 0.028,-0.005 0.144,-0.014c0,0.022 0,0.022 -0.001,0.055c-0.001,0.02 -0.001,0.031 -0.002,0.056c-0.1,0.092 -0.156,0.141 -0.18,0.157l0.077,0.161Z" style="fill-rule:nonzero;"/></g></g><g transform="matrix(0.200468,-0.991339,0.98016,0.198207,-14.8933,410.904)"><g transform="matrix(46.491,0,0,46.491,248.625,207.642)"><path d="M0.079,-0.758c0.003,0.027 0.003,0.037 0.004,0.071c0.002,0.139 0.006,0.223 0.011,0.293c0.013,0.159 0.04,0.259 0.092,0.333c0.039,0.057 0.087,0.086 0.143,0.086c0.061,0 0.115,-0.036 0.152,-0.102c0.031,-0.056 0.055,-0.116 0.076,-0.193c-0.066,-0.048 -0.093,-0.071 -0.139,-0.126c-0.012,0.06 -0.03,0.117 -0.052,0.173c-0.01,0.026 -0.021,0.039 -0.032,0.039c-0.042,0 -0.074,-0.169 -0.074,-0.393c0,-0.073 0.004,-0.136 0.011,-0.181l-0.192,0Zm0.501,0.106c0.124,0.157 0.193,0.354 0.204,0.578l0.179,-0.066c-0.028,-0.242 -0.101,-0.425 -0.231,-0.582l-0.152,0.07Z" style="fill-rule:nonzero;"/></g></g><g transform="matrix(0.523137,-0.865603,0.855842,0.517238,-17.7436,294.8)"><g transform="matrix(46.491,0,0,46.491,260.139,155.318)"><path d="M0.079,-0.758c0.003,0.027 0.003,0.037 0.004,0.071c0.002,0.139 0.006,0.223 0.011,0.293c0.013,0.159 0.04,0.259 0.092,0.333c0.039,0.057 0.087,0.086 0.143,0.086c0.061,0 0.115,-0.036 0.152,-0.102c0.031,-0.056 0.055,-0.116 0.076,-0.193c-0.066,-0.048 -0.093,-0.071 -0.139,-0.126c-0.012,0.06 -0.03,0.117 -0.052,0.173c-0.01,0.026 -0.021,0.039 -0.032,0.039c-0.042,0 -0.074,-0.169 -0.074,-0.393c0,-0.073 0.004,-0.136 0.011,-0.181l-0.192,0Zm0.501,0.106c0.124,0.157 0.193,0.354 0.204,0.578l0.179,-0.066c-0.028,-0.242 -0.101,-0.425 -0.231,-0.582l-0.152,0.07Z" style="fill-rule:nonzero;"/></g></g><g transform="matrix(0.772,-0.653419,0.64605,0.763295,-12.1773,206.777)"><g transform="matrix(46.491,0,0,46.491,288.587,110.334)"><path d="M0.365,-0.846c-0.005,0.035 -0.017,0.068 -0.043,0.12c-0.065,0.128 -0.144,0.219 -0.266,0.305c0.066,0.04 0.091,0.062 0.142,0.12c0.095,-0.075 0.162,-0.148 0.227,-0.251l0.266,-0.003c-0.037,0.115 -0.093,0.209 -0.167,0.284c-0.088,0.088 -0.192,0.152 -0.334,0.204c0.056,0.049 0.087,0.088 0.12,0.152c0.164,-0.075 0.277,-0.154 0.368,-0.258c0.088,-0.1 0.156,-0.23 0.207,-0.396c0.014,-0.045 0.017,-0.051 0.029,-0.071l-0.083,-0.082c-0.024,0.009 -0.035,0.011 -0.074,0.011l-0.251,0.003c0.007,-0.014 0.007,-0.014 0.02,-0.043c0.002,-0.004 0.005,-0.011 0.009,-0.021c0.003,-0.006 0.005,-0.012 0.007,-0.015c0.005,-0.013 0.007,-0.016 0.012,-0.025l-0.189,-0.034Z" style="fill-rule:nonzero;"/></g></g><g transform="matrix(0.946626,-0.356146,0.35213,0.935951,-13.0323,112.836)"><g transform="matrix(46.491,0,0,46.491,330.258,76.7077)"><path d="M0.182,-0.64c0.044,-0.004 0.066,-0.005 0.145,-0.005l0.324,0c0.069,0 0.116,0.002 0.154,0.005l0,-0.168c-0.035,0.006 -0.078,0.008 -0.157,0.008l-0.319,0c-0.071,0 -0.108,-0.002 -0.147,-0.008l0,0.168Zm-0.083,0.25c0.063,-0.005 0.08,-0.006 0.159,-0.006l0.433,0c-0.037,0.089 -0.081,0.146 -0.154,0.2c-0.072,0.054 -0.144,0.086 -0.264,0.117c0.058,0.064 0.086,0.105 0.112,0.164c0.137,-0.053 0.209,-0.092 0.285,-0.156c0.098,-0.082 0.17,-0.194 0.222,-0.343c0.014,-0.041 0.016,-0.045 0.028,-0.063l-0.078,-0.084c-0.025,0.01 -0.032,0.011 -0.08,0.011l-0.502,0c-0.084,0 -0.116,-0.002 -0.161,-0.008l0,0.168Z" style="fill-rule:nonzero;"/></g></g><g transform="matrix(1.01123,-0.0190267,0.0188122,0.999823,-5.57167,-3.10723)"><g transform="matrix(46.491,0,0,46.491,380.592,58.6924)"><path d="M0.826,-0.677l0.042,-0.014c-0.024,-0.065 -0.053,-0.119 -0.085,-0.16l-0.091,0.027c0.019,0.026 0.029,0.042 0.041,0.066l0.004,0.007l0.002,0.003c-0.015,0.002 -0.042,0.003 -0.077,0.003l-0.43,0c-0.09,0 -0.116,-0.002 -0.155,-0.008l0,0.179c0.037,-0.005 0.057,-0.006 0.152,-0.006l0.43,0c-0.053,0.23 -0.236,0.409 -0.503,0.493c0.067,0.066 0.09,0.096 0.127,0.168c0.316,-0.141 0.488,-0.339 0.572,-0.657c0.004,-0.014 0.006,-0.023 0.007,-0.026c0.002,-0.007 0.003,-0.011 0.007,-0.021l-0.043,-0.054Zm0.011,-0.175c0.036,0.053 0.053,0.086 0.078,0.154l0.083,-0.029c-0.018,-0.059 -0.042,-0.105 -0.078,-0.151l-0.083,0.026Z" style="fill-rule:nonzero;"/></g></g></g></g><g id="blips"><g><g><path d="M24.063,185.7c0,-4.841 3.93,-8.771 8.771,-8.771c4.841,0 8.771,3.93 8.771,8.771c0,4.841 -3.93,8.771 -8.771,8.771c-4.841,0 -8.771,-3.93 -8.771,-8.771Z" style="stroke:#000;stroke-width:9px;"/><path d="M51.159,185.7l-14.082,7.634l0,-15.268l14.082,7.634Z" style="stroke:#000;stroke-width:9px;"/></g><g><path d="M336.019,185.7c0,-4.841 -3.93,-8.771 -8.771,-8.771c-4.841,0 -8.771,3.93 -8.771,8.771c0,4.841 3.93,8.771 8.771,8.771c4.841,0 8.771,-3.93 8.771,-8.771Z" style="stroke:#000;stroke-width:9px;"/><path d="M308.923,185.7l14.081,7.634l0,-15.268l-14.081,7.634Z" style="stroke:#000;stroke-width:9px;"/></g></g></g><path id="rubber-ring" serif:id="rubber ring" d="M180.041,78.461c59.187,0 107.239,48.052 107.239,107.239c0,59.187 -48.052,107.239 -107.239,107.239c-59.187,0 -107.239,-48.052 -107.239,-107.239c0,-59.187 48.052,-107.239 107.239,-107.239Zm0,9c54.22,0 98.239,44.019 98.239,98.239c0,54.22 -44.019,98.239 -98.239,98.239c-54.22,0 -98.239,-44.019 -98.239,-98.239c0,-54.22 44.019,-98.239 98.239,-98.239Z"/><g><g transform="matrix(-0.683426,0.390008,-0.394456,-0.69122,543.97,174.739)"><g transform="matrix(-0.839233,0.564472,-0.558107,-0.829769,1137.41,313.455)"><g transform="matrix(82.887,0,0,82.887,517.792,330.574)"><path d="M0.547,-0.153c0,0.017 -0.005,0.035 -0.015,0.053c-0.01,0.019 -0.025,0.037 -0.045,0.054c-0.021,0.017 -0.046,0.031 -0.077,0.042c-0.031,0.01 -0.066,0.015 -0.105,0.015c-0.082,0 -0.146,-0.024 -0.193,-0.072c-0.046,-0.048 -0.069,-0.112 -0.069,-0.193c0,-0.055 0.011,-0.103 0.032,-0.145c0.021,-0.042 0.051,-0.074 0.092,-0.097c0.04,-0.023 0.087,-0.035 0.143,-0.035c0.035,0 0.066,0.005 0.095,0.015c0.029,0.01 0.053,0.023 0.073,0.039c0.02,0.016 0.036,0.033 0.046,0.051c0.011,0.019 0.016,0.035 0.016,0.051c0,0.016 -0.006,0.029 -0.018,0.041c-0.012,0.011 -0.026,0.016 -0.043,0.016c-0.011,0 -0.02,-0.003 -0.028,-0.008c-0.007,-0.006 -0.015,-0.015 -0.024,-0.028c-0.017,-0.025 -0.034,-0.043 -0.051,-0.056c-0.018,-0.012 -0.041,-0.018 -0.068,-0.018c-0.039,0 -0.071,0.015 -0.095,0.046c-0.024,0.031 -0.036,0.073 -0.036,0.126c0,0.025 0.003,0.048 0.009,0.069c0.006,0.021 0.015,0.039 0.027,0.054c0.012,0.015 0.026,0.026 0.042,0.034c0.017,0.007 0.035,0.011 0.055,0.011c0.027,0 0.05,-0.006 0.069,-0.018c0.019,-0.013 0.036,-0.032 0.05,-0.057c0.008,-0.015 0.017,-0.027 0.027,-0.035c0.009,-0.009 0.021,-0.013 0.034,-0.013c0.017,0 0.03,0.006 0.041,0.019c0.011,0.012 0.016,0.025 0.016,0.039Z" style="fill-rule:nonzero;"/></g></g><g transform="matrix(-0.973668,0.273699,-0.270612,-0.962688,1036.94,574.318)"><g transform="matrix(82.887,0,0,82.887,476.09,358.501)"><path d="M0.415,-0.063l0,-0.017c-0.016,0.02 -0.033,0.037 -0.05,0.051c-0.018,0.013 -0.037,0.024 -0.058,0.03c-0.021,0.007 -0.044,0.01 -0.071,0.01c-0.032,0 -0.061,-0.006 -0.087,-0.02c-0.025,-0.013 -0.045,-0.032 -0.059,-0.055c-0.017,-0.028 -0.025,-0.069 -0.025,-0.122l0,-0.264c0,-0.027 0.006,-0.047 0.018,-0.06c0.012,-0.013 0.028,-0.02 0.048,-0.02c0.02,0 0.036,0.007 0.049,0.02c0.012,0.014 0.018,0.033 0.018,0.06l0,0.213c0,0.031 0.003,0.057 0.008,0.078c0.005,0.021 0.015,0.037 0.028,0.049c0.014,0.012 0.032,0.018 0.055,0.018c0.023,0 0.044,-0.006 0.064,-0.02c0.019,-0.013 0.034,-0.031 0.043,-0.052c0.007,-0.019 0.011,-0.06 0.011,-0.124l0,-0.162c0,-0.027 0.006,-0.046 0.019,-0.06c0.012,-0.013 0.028,-0.02 0.048,-0.02c0.02,0 0.036,0.007 0.048,0.02c0.012,0.013 0.018,0.033 0.018,0.06l0,0.386c0,0.025 -0.006,0.044 -0.017,0.057c-0.012,0.013 -0.027,0.019 -0.045,0.019c-0.018,0 -0.033,-0.006 -0.045,-0.02c-0.012,-0.013 -0.018,-0.031 -0.018,-0.055Z" style="fill-rule:nonzero;"/></g></g><g transform="matrix(-1.01132,0.0134783,-0.0133263,-0.999911,863.587,737.247)"><g transform="matrix(82.887,0,0,82.887,426.899,370.999)"><path d="M0.076,-0.518l0.015,0l0,-0.08c0,-0.022 0,-0.038 0.002,-0.051c0.001,-0.012 0.004,-0.022 0.009,-0.031c0.005,-0.009 0.013,-0.017 0.023,-0.022c0.009,-0.006 0.02,-0.009 0.032,-0.009c0.017,0 0.032,0.006 0.046,0.019c0.009,0.009 0.015,0.019 0.017,0.031c0.003,0.012 0.004,0.03 0.004,0.052l0,0.091l0.049,0c0.019,0 0.033,0.004 0.043,0.013c0.01,0.009 0.015,0.021 0.015,0.035c0,0.018 -0.007,0.03 -0.021,0.037c-0.014,0.008 -0.035,0.011 -0.061,0.011l-0.025,0l0,0.245c0,0.021 0.001,0.037 0.002,0.048c0.002,0.012 0.006,0.021 0.012,0.028c0.006,0.007 0.017,0.01 0.031,0.01c0.008,0 0.018,-0.001 0.032,-0.004c0.013,-0.003 0.024,-0.004 0.031,-0.004c0.011,0 0.02,0.004 0.029,0.013c0.009,0.008 0.013,0.019 0.013,0.032c0,0.021 -0.012,0.038 -0.035,0.049c-0.024,0.012 -0.057,0.017 -0.101,0.017c-0.042,0 -0.073,-0.007 -0.095,-0.021c-0.021,-0.014 -0.035,-0.033 -0.042,-0.058c-0.007,-0.025 -0.01,-0.058 -0.01,-0.099l0,-0.256l-0.018,0c-0.019,0 -0.034,-0.004 -0.044,-0.014c-0.01,-0.009 -0.015,-0.02 -0.015,-0.034c0,-0.014 0.005,-0.026 0.016,-0.035c0.011,-0.009 0.026,-0.013 0.046,-0.013Z" style="fill-rule:nonzero;"/></g></g><g transform="matrix(-1.0014,-0.141921,0.14032,-0.990106,742.609,796.146)"><g transform="matrix(82.887,0,0,82.887,397.144,371.215)"><path d="M0.202,-0.454l0,0.385c0,0.027 -0.006,0.047 -0.019,0.061c-0.013,0.013 -0.029,0.02 -0.048,0.02c-0.02,0 -0.036,-0.007 -0.048,-0.021c-0.012,-0.014 -0.018,-0.034 -0.018,-0.06l0,-0.381c0,-0.027 0.006,-0.046 0.018,-0.06c0.012,-0.013 0.028,-0.02 0.048,-0.02c0.019,0 0.035,0.007 0.048,0.02c0.013,0.014 0.019,0.032 0.019,0.056Zm-0.066,-0.138c-0.018,0 -0.034,-0.005 -0.047,-0.017c-0.014,-0.011 -0.02,-0.027 -0.02,-0.048c0,-0.019 0.007,-0.035 0.02,-0.047c0.014,-0.012 0.029,-0.018 0.047,-0.018c0.017,0 0.033,0.005 0.046,0.016c0.013,0.012 0.02,0.028 0.02,0.049c0,0.02 -0.006,0.036 -0.019,0.048c-0.013,0.011 -0.029,0.017 -0.047,0.017Z" style="fill-rule:nonzero;"/></g></g><g transform="matrix(-0.943606,-0.364072,0.359966,-0.932965,593.9,851.338)"><g transform="matrix(82.887,0,0,82.887,374.183,369.454)"><path d="M0.441,-0.226l-0.261,0c0.001,0.03 0.007,0.057 0.018,0.08c0.012,0.023 0.028,0.041 0.048,0.052c0.02,0.012 0.041,0.018 0.065,0.018c0.016,0 0.031,-0.002 0.044,-0.006c0.013,-0.004 0.026,-0.009 0.038,-0.017c0.012,-0.008 0.024,-0.017 0.034,-0.026c0.011,-0.009 0.024,-0.021 0.041,-0.037c0.007,-0.006 0.016,-0.009 0.029,-0.009c0.014,0 0.025,0.004 0.033,0.011c0.009,0.008 0.013,0.018 0.013,0.032c0,0.012 -0.005,0.026 -0.014,0.042c-0.01,0.016 -0.024,0.032 -0.043,0.047c-0.019,0.015 -0.043,0.027 -0.072,0.037c-0.029,0.009 -0.062,0.014 -0.099,0.014c-0.086,0 -0.152,-0.024 -0.2,-0.073c-0.047,-0.049 -0.071,-0.115 -0.071,-0.199c0,-0.039 0.006,-0.076 0.018,-0.109c0.011,-0.034 0.028,-0.063 0.051,-0.087c0.022,-0.024 0.05,-0.043 0.083,-0.055c0.033,-0.013 0.069,-0.02 0.109,-0.02c0.052,0 0.097,0.011 0.134,0.033c0.037,0.022 0.065,0.051 0.084,0.085c0.019,0.035 0.028,0.071 0.028,0.107c0,0.033 -0.01,0.055 -0.029,0.065c-0.019,0.01 -0.046,0.015 -0.081,0.015Zm-0.261,-0.076l0.242,0c-0.003,-0.045 -0.016,-0.079 -0.037,-0.102c-0.021,-0.023 -0.049,-0.034 -0.084,-0.034c-0.033,0 -0.061,0.011 -0.082,0.034c-0.021,0.023 -0.034,0.057 -0.039,0.102Z" style="fill-rule:nonzero;"/></g></g><g transform="matrix(-0.694948,-0.734839,0.726552,-0.687111,277.838,800.863)"><g transform="matrix(82.887,0,0,82.887,309.821,339.327)"><path d="M0.547,-0.153c0,0.017 -0.005,0.035 -0.015,0.053c-0.01,0.019 -0.025,0.037 -0.045,0.054c-0.021,0.017 -0.046,0.031 -0.077,0.042c-0.031,0.01 -0.066,0.015 -0.105,0.015c-0.082,0 -0.146,-0.024 -0.193,-0.072c-0.046,-0.048 -0.069,-0.112 -0.069,-0.193c0,-0.055 0.011,-0.103 0.032,-0.145c0.021,-0.042 0.051,-0.074 0.092,-0.097c0.04,-0.023 0.087,-0.035 0.143,-0.035c0.035,0 0.066,0.005 0.095,0.015c0.029,0.01 0.053,0.023 0.073,0.039c0.02,0.016 0.036,0.033 0.046,0.051c0.011,0.019 0.016,0.035 0.016,0.051c0,0.016 -0.006,0.029 -0.018,0.041c-0.012,0.011 -0.026,0.016 -0.043,0.016c-0.011,0 -0.02,-0.003 -0.028,-0.008c-0.007,-0.006 -0.015,-0.015 -0.024,-0.028c-0.017,-0.025 -0.034,-0.043 -0.051,-0.056c-0.018,-0.012 -0.041,-0.018 -0.068,-0.018c-0.039,0 -0.071,0.015 -0.095,0.046c-0.024,0.031 -0.036,0.073 -0.036,0.126c0,0.025 0.003,0.048 0.009,0.069c0.006,0.021 0.015,0.039 0.027,0.054c0.012,0.015 0.026,0.026 0.042,0.034c0.017,0.007 0.035,0.011 0.055,0.011c0.027,0 0.05,-0.006 0.069,-0.018c0.019,-0.013 0.036,-0.032 0.05,-0.057c0.008,-0.015 0.017,-0.027 0.027,-0.035c0.009,-0.009 0.021,-0.013 0.034,-0.013c0.017,0 0.03,0.006 0.041,0.019c0.011,0.012 0.016,0.025 0.016,0.039Z" style="fill-rule:nonzero;"/></g></g><g transform="matrix(-0.518535,-0.868367,0.858575,-0.512688,160.456,701.439)"><g transform="matrix(82.887,0,0,82.887,277.999,303.766)"><path d="M0.069,-0.069l0,-0.578c0,-0.027 0.006,-0.047 0.018,-0.061c0.012,-0.013 0.028,-0.02 0.048,-0.02c0.02,0 0.036,0.007 0.049,0.02c0.012,0.014 0.018,0.034 0.018,0.061l0,0.578c0,0.027 -0.006,0.047 -0.019,0.061c-0.012,0.013 -0.028,0.02 -0.048,0.02c-0.02,0 -0.036,-0.007 -0.048,-0.021c-0.012,-0.014 -0.018,-0.034 -0.018,-0.06Z" style="fill-rule:nonzero;"/></g></g><g transform="matrix(-0.300705,-0.965669,0.95478,-0.297314,71.583,625.365)"><g transform="matrix(82.887,0,0,82.887,264.787,284.712)"><path d="M0.415,-0.063l0,-0.017c-0.016,0.02 -0.033,0.037 -0.05,0.051c-0.018,0.013 -0.037,0.024 -0.058,0.03c-0.021,0.007 -0.044,0.01 -0.071,0.01c-0.032,0 -0.061,-0.006 -0.087,-0.02c-0.025,-0.013 -0.045,-0.032 -0.059,-0.055c-0.017,-0.028 -0.025,-0.069 -0.025,-0.122l0,-0.264c0,-0.027 0.006,-0.047 0.018,-0.06c0.012,-0.013 0.028,-0.02 0.048,-0.02c0.02,0 0.036,0.007 0.049,0.02c0.012,0.014 0.018,0.033 0.018,0.06l0,0.213c0,0.031 0.003,0.057 0.008,0.078c0.005,0.021 0.015,0.037 0.028,0.049c0.014,0.012 0.032,0.018 0.055,0.018c0.023,0 0.044,-0.006 0.064,-0.02c0.019,-0.013 0.034,-0.031 0.043,-0.052c0.007,-0.019 0.011,-0.06 0.011,-0.124l0,-0.162c0,-0.027 0.006,-0.046 0.019,-0.06c0.012,-0.013 0.028,-0.02 0.048,-0.02c0.02,0 0.036,0.007 0.048,0.02c0.012,0.013 0.018,0.033 0.018,0.06l0,0.386c0,0.025 -0.006,0.044 -0.017,0.057c-0.012,0.013 -0.027,0.019 -0.045,0.019c-0.018,0 -0.033,-0.006 -0.045,-0.02c-0.012,-0.013 -0.018,-0.031 -0.018,-0.055Z" style="fill-rule:nonzero;"/></g></g><g transform="matrix(0.0372835,-1.01072,0.99932,0.0368631,3.33598,479.354)"><g transform="matrix(82.887,0,0,82.887,249.464,235.952)"><path d="M0.192,-0.652l0,0.204c0.025,-0.026 0.051,-0.046 0.077,-0.06c0.026,-0.014 0.058,-0.021 0.096,-0.021c0.045,0 0.083,0.011 0.117,0.032c0.033,0.021 0.059,0.051 0.077,0.091c0.019,0.04 0.028,0.087 0.028,0.142c0,0.04 -0.005,0.077 -0.015,0.111c-0.011,0.034 -0.026,0.063 -0.045,0.088c-0.02,0.024 -0.043,0.043 -0.071,0.057c-0.028,0.013 -0.059,0.02 -0.092,0.02c-0.021,0 -0.04,-0.002 -0.058,-0.007c-0.018,-0.005 -0.034,-0.011 -0.046,-0.019c-0.013,-0.008 -0.024,-0.017 -0.033,-0.025c-0.009,-0.009 -0.02,-0.021 -0.035,-0.038l0,0.013c0,0.025 -0.006,0.044 -0.018,0.057c-0.012,0.013 -0.028,0.019 -0.046,0.019c-0.019,0 -0.034,-0.006 -0.045,-0.019c-0.011,-0.013 -0.017,-0.032 -0.017,-0.057l0,-0.582c0,-0.027 0.005,-0.047 0.016,-0.061c0.011,-0.014 0.026,-0.021 0.046,-0.021c0.02,0 0.036,0.007 0.047,0.02c0.011,0.013 0.017,0.032 0.017,0.056Zm0.006,0.396c0,0.053 0.012,0.094 0.037,0.122c0.024,0.029 0.056,0.043 0.095,0.043c0.034,0 0.062,-0.014 0.087,-0.044c0.024,-0.029 0.036,-0.07 0.036,-0.125c0,-0.035 -0.005,-0.065 -0.015,-0.091c-0.01,-0.025 -0.024,-0.045 -0.043,-0.058c-0.019,-0.014 -0.04,-0.021 -0.065,-0.021c-0.025,0 -0.048,0.007 -0.068,0.021c-0.02,0.013 -0.035,0.033 -0.047,0.06c-0.011,0.026 -0.017,0.057 -0.017,0.093Z" style="fill-rule:nonzero;"/></g></g></g></g></g><g><g><g><path d="M139.008,157.544c12.697,-7.33 28.957,-2.974 36.287,9.723c7.331,12.697 2.974,28.957 -9.723,36.287c-12.697,7.331 -28.956,2.974 -36.287,-9.723c-7.33,-12.697 -2.974,-28.956 9.723,-36.287Z" style="stroke:#000;stroke-width:9px;"/><path d="M180.041,228.615l-41.033,-25.061l39.732,-23.435l1.301,48.496Z" style="stroke:#000;stroke-width:9px;"/></g></g><g><path d="M221.074,157.544c-12.697,-7.33 -28.957,-2.974 -36.287,9.723c-7.331,12.697 -2.974,28.957 9.723,36.287c12.697,7.331 28.956,2.974 36.287,-9.723c7.33,-12.697 2.974,-28.956 -9.723,-36.287Z" style="stroke:#000;stroke-width:9px;"/><path d="M180.041,228.615l41.033,-25.061l-39.732,-23.435l-1.301,48.496Z" style="stroke:#000;stroke-width:9px;"/></g></g></g><g id="uwu-stamp" serif:id="uwu stamp"><g><g id="u"></g><g id="w"></g></g></g></svg>