<?xml version="1.0" encoding="UTF-8" standalone="no"?><!DOCTYPE svg PUBLIC "-//W3C//DTD SVG 1.1//EN" "http://www.w3.org/Graphics/SVG/1.1/DTD/svg11.dtd"><svg width="100%" height="100%" viewBox="0 0 512 512" version="1.1" xmlns="http://www.w3.org/2000/svg" xmlns:xlink="http://www.w3.org/1999/xlink" xml:space="preserve" xmlns:serif="http://www.serif.com/" style="fill-rule:evenodd;clip-rule:evenodd;stroke-linejoin:round;stroke-miterlimit:2;"><g><g id="Dark"><rect x="0" y="0" width="512" height="512" style="fill:#222;"/><g><path d="M104.906,96.487c1.946,-8.213 10.424,-11.08 15.81,-9.124c5.386,1.955 7.678,8.735 5.732,16.948c-1.247,6.088 -7.158,13.753 -12.37,19.293c-7.505,-1.239 -16.855,-3.743 -21.542,-7.823c-6.532,-5.346 -8.825,-12.125 -5.732,-16.948c3.092,-4.824 11.57,-7.691 18.102,-2.346Z" style="fill:#292929;"/><path d="M283.368,226.468c0,0 -23.156,26.655 -26.812,39.819c-2.241,8.073 2.493,16.447 10.566,18.688c8.072,2.242 16.446,-2.492 18.688,-10.565c3.656,-13.164 -2.442,-47.942 -2.442,-47.942Z" style="fill:#292929;"/><g id="cloud"><path d="M368.229,97.626c3.728,0.412 6.42,3.773 6.008,7.501c-0.411,3.728 -3.772,6.421 -7.5,6.009c-3.729,-0.412 -6.421,-3.773 -6.009,-7.501c0.412,-3.728 3.773,-6.421 7.501,-6.009Z" style="fill:#292929;"/><path d="M379.015,89.031c5.364,0.593 9.238,5.428 8.646,10.792c-0.593,5.364 -5.429,9.238 -10.793,8.645c-5.363,-0.592 -9.237,-5.428 -8.645,-10.792c0.593,-5.364 5.429,-9.237 10.792,-8.645Z" style="fill:#292929;"/><path d="M402.821,94.453c4.308,0.476 7.419,4.36 6.943,8.668c-0.475,4.309 -4.36,7.42 -8.668,6.944c-4.308,-0.476 -7.42,-4.36 -6.944,-8.668c0.476,-4.308 4.36,-7.42 8.669,-6.944Z" style="fill:#292929;"/><path d="M409.582,101.931l-41.325,-4.564l-1.492,13.509l41.325,4.565l1.492,-13.51Z" style="fill:#292929;"/><path d="M409.582,101.931c3.729,0.412 6.421,3.773 6.009,7.501c-0.412,3.728 -3.773,6.421 -7.501,6.009c-3.728,-0.412 -6.42,-3.773 -6.008,-7.501c0.411,-3.728 3.772,-6.42 7.5,-6.009Z" style="fill:#292929;"/><path d="M392.019,86.825c4.753,0.525 8.186,4.811 7.661,9.565c-0.525,4.753 -4.811,8.186 -9.564,7.661c-4.754,-0.525 -8.187,-4.811 -7.662,-9.564c0.525,-4.754 4.811,-8.187 9.565,-7.662Z" style="fill:#292929;"/></g><circle cx="108.141" cy="392.662" r="18.424" style="fill:#292929;"/><path d="M433.982,385.649c-0.396,-3.207 -3.321,-5.489 -6.528,-5.093l-24.781,3.059c-3.207,0.396 -5.489,3.321 -5.093,6.528l3.059,24.781c0.396,3.207 3.321,5.489 6.528,5.094l24.781,-3.06c3.207,-0.396 5.489,-3.321 5.093,-6.528l-3.059,-24.781Z" style="fill:#292929;"/></g></g></g></svg>